<?xml version="1.0" encoding="utf-8"?>
<!-- Generator: Adobe Illustrator 16.0.4, SVG Export Plug-In . SVG Version: 6.00 Build 0)  -->
<!DOCTYPE svg PUBLIC "-//W3C//DTD SVG 1.1//EN" "http://www.w3.org/Graphics/SVG/1.1/DTD/svg11.dtd">
<svg version="1.1"
	 id="svg2" xmlns:dc="http://purl.org/dc/elements/1.1/" xmlns:cc="http://creativecommons.org/ns#" xmlns:rdf="http://www.w3.org/1999/02/22-rdf-syntax-ns#" xmlns:svg="http://www.w3.org/2000/svg"
	 xmlns="http://www.w3.org/2000/svg" xmlns:xlink="http://www.w3.org/1999/xlink" x="0px" y="0px" width="1530px" height="1974.5px"
	 viewBox="-765 -984.5 1530 1974.5" enable-background="new -765 -984.5 1530 1974.5" xml:space="preserve">
<g>
	<g>
		<g id="g10" transform="matrix(1.25,0,0,-1.25,0,990)">
			<defs>
				<rect id="SVGID_1_" x="-756.654" y="-196.8" width="1520.727" height="1968"/>
			</defs>
			<clipPath id="SVGID_2_">
				<use xlink:href="#SVGID_1_"  overflow="visible"/>
			</clipPath>
			<g id="g12" clip-path="url(#SVGID_2_)">
				<g id="g14">
					<g id="g22">
					</g>
					<g id="g20">
						<g id="g28">
							<defs>
								<rect id="SVGID_3_" x="-788.551" y="16.314" width="1573.838" height="1570.288"/>
							</defs>
							<clipPath id="SVGID_4_">
								<use xlink:href="#SVGID_3_"  overflow="visible"/>
							</clipPath>
							<g id="g30" opacity="0.05" clip-path="url(#SVGID_4_)">
								<g id="g32" transform="translate(557.7397,405.5071)">
									<path id="path34" fill="#838386" d="M-53.602,400.592c0-273.802-222.705-495.879-497.384-495.879
										c-274.73,0-497.331,222.077-497.331,495.879c0,273.957,222.6,495.984,497.331,495.984
										C-276.307,896.575-53.602,674.549-53.602,400.592"/>
								</g>
								<g id="g36" transform="translate(557.7397,405.5071)">
									<path id="path38" fill="#838386" d="M-53.602,400.592h-5.538c0-135.404-55.031-257.955-144.07-346.717
										C-292.199-34.891-415.148-89.763-550.987-89.763c-135.838,0-258.785,54.873-347.773,143.638
										c-88.989,88.762-144.018,211.313-144.018,346.717c0,135.482,55.029,258.059,144.018,346.821
										c88.988,88.765,211.884,143.638,347.773,143.664c135.839-0.026,258.787-54.9,347.777-143.664
										c89.038-88.763,144.07-211.34,144.07-346.821H-53.602h5.538c0,277.003-225.19,501.48-502.923,501.506
										c-277.784-0.026-502.869-224.503-502.869-501.506c0-276.848,225.085-501.379,502.869-501.379
										c277.733,0,502.923,224.531,502.923,501.379H-53.602z"/>
								</g>
								<g id="g40" transform="translate(246.6465,395.9508)">
									<path id="path42" fill="#45505F" d="M-360.924,391.151c0-124.564-101.205-225.589-226.174-225.589
										c-124.914,0-226.069,101.025-226.069,225.589c0,124.461,101.155,225.435,226.069,225.435
										C-462.13,616.587-360.924,515.612-360.924,391.151"/>
								</g>
								<g id="g44" transform="translate(246.6465,395.9508)">
									<path id="path46" fill="#FFFFFF" d="M-360.924,391.151h-30.855c-0.207-107.577-87.435-194.615-195.319-194.822
										c-107.832,0.207-195.009,87.245-195.215,194.822c0.207,107.451,87.332,194.46,195.215,194.667
										c54.047-0.029,102.708-21.76,138.116-57.042c35.41-35.336,57.152-83.783,57.203-137.625H-360.924h30.853
										c0,141.47-115.029,256.199-257.027,256.199c-141.998-0.026-256.921-114.729-256.921-256.199
										c0-141.546,114.923-256.329,256.921-256.354c142.05,0.025,257.027,114.808,257.027,256.354H-360.924z"/>
								</g>
								<g id="g48" transform="translate(587.4792,399.4549)">
									<path id="path50" fill="#45505F" d="M-24.225,394.613c0-124.561-101.255-225.482-226.172-225.482
										c-124.913,0-226.07,100.921-226.07,225.482c0,124.618,101.157,225.591,226.07,225.591
										C-125.48,620.204-24.225,519.231-24.225,394.613"/>
								</g>
								<g id="g52" transform="translate(587.4792,399.4549)">
									<path id="path54" fill="#FFFFFF" d="M-24.225,394.613h-30.854c-0.206-107.55-87.434-194.508-195.318-194.715
										c-107.884,0.207-195.009,87.139-195.216,194.715c0.207,107.635,87.332,194.618,195.216,194.825
										c107.884-0.207,195.112-87.215,195.318-194.825H-24.225H6.63c0,141.625-115.08,256.361-257.027,256.361
										c-141.998,0-256.921-114.756-256.921-256.361c0-141.545,114.974-256.247,256.921-256.247
										c141.947,0,257.027,114.675,257.027,256.247H-24.225z"/>
								</g>
								<g id="g56" transform="translate(419.1722,575.1826)">
									<path id="path58" fill="#45505F" d="M-190.491,568.211c0-124.509-101.256-225.481-226.121-225.481
										c-124.914,0-226.069,100.972-226.069,225.481c0,124.566,101.155,225.59,226.069,225.59
										C-291.747,793.801-190.491,692.778-190.491,568.211"/>
								</g>
								<g id="g60" transform="translate(419.1722,575.1826)">
									<path id="path62" fill="#FFFFFF" d="M-190.491,568.211h-30.853c0-53.838-21.845-102.338-57.204-137.669
										c-35.459-35.286-84.069-57.024-138.064-57.042c-107.883,0.206-195.008,87.186-195.215,194.711
										c0.207,107.583,87.385,194.616,195.215,194.824c53.995-0.025,102.605-21.757,138.064-57.068
										c35.359-35.358,57.204-83.859,57.204-137.755H-190.491h30.854c0,141.577-115.028,256.332-256.975,256.36
										c-141.998-0.028-256.921-114.809-256.921-256.36c0-141.494,114.923-256.249,256.921-256.249
										c141.947,0.027,256.975,114.729,256.975,256.249H-190.491z"/>
								</g>
								<g id="g64" transform="translate(419.1722,217.1588)">
									<path id="path66" fill="#45505F" d="M-190.491,214.526c0-124.616-101.256-225.589-226.121-225.589
										c-124.914,0-226.069,100.973-226.069,225.589c0,124.41,101.155,225.486,226.069,225.486
										C-291.747,440.012-190.491,338.936-190.491,214.526"/>
								</g>
								<g id="g68" transform="translate(419.1722,217.1588)">
									<path id="path70" fill="#FFFFFF" d="M-190.491,214.526h-30.853c0-53.918-21.845-102.418-57.204-137.78
										c-35.459-35.282-84.069-57.015-138.064-57.041c-107.883,0.207-195.008,87.191-195.215,194.822
										c0,53.815,21.795,102.289,57.151,137.651c35.463,35.283,84.02,57.041,138.064,57.068
										c53.995-0.027,102.605-21.784,138.064-57.068c35.359-35.362,57.204-83.861,57.204-137.651H-190.491h30.854
										c-0.051,141.417-115.028,256.222-256.975,256.252c-141.998-0.03-256.921-114.834-256.921-256.252
										c0-141.598,114.923-256.354,256.921-256.354c141.947,0.024,256.975,114.73,256.975,256.354H-190.491z"/>
								</g>
							</g>
						</g>
					</g>
				</g>
			</g>
		</g>
	</g>
</g>
</svg>
