<?xml version="1.0" encoding="utf-8"?>
<!-- Generator: Adobe Illustrator 16.0.4, SVG Export Plug-In . SVG Version: 6.00 Build 0)  -->
<!DOCTYPE svg PUBLIC "-//W3C//DTD SVG 1.1//EN" "http://www.w3.org/Graphics/SVG/1.1/DTD/svg11.dtd">
<svg version="1.1" xmlns="http://www.w3.org/2000/svg" xmlns:xlink="http://www.w3.org/1999/xlink" x="0px" y="0px"
	 width="204.833px" height="64.334px" viewBox="0 17.925 204.833 64.334" enable-background="new 0 17.925 204.833 64.334"
	 xml:space="preserve">
<g id="Layer_1" display="none">
	<rect x="-13.195" y="0" width="233.183" height="98.182"/>
	<g display="inline">
		<g>
			<circle fill="#FFFFFF" stroke="#FFFFFF" stroke-width="0.2859" cx="188.375" cy="34.003" r="12.866"/>
			<circle fill="#FFFFFF" stroke="#000000" stroke-width="1.5967" cx="179.394" cy="34.499" r="5.85"/>
			<circle fill="#FFFFFF" stroke="#000000" stroke-width="1.5967" cx="196.922" cy="34.315" r="5.851"/>
			<circle fill="#FFFFFF" stroke="#000000" stroke-width="1.5967" cx="188.267" cy="25.253" r="5.85"/>
			<circle fill="#FFFFFF" stroke="#000000" stroke-width="1.5967" cx="188.267" cy="43.72" r="5.85"/>
		</g>
		<g>
			<path fill="#FFFFFF" d="M2.907,50.38c0-1.773-0.261-5.529-0.261-6.781h3.13c0.053,1.773,0.104,3.756,0.209,4.228
				c1.564-2.819,4.068-4.854,7.668-4.854c0.627,0,1.201,0.104,1.826,0.261l-0.365,3.078c-0.469-0.158-0.886-0.209-1.199-0.209
				c-5.426,0-7.878,3.756-7.878,8.451V67.7h-3.13V50.38z"/>
			<path fill="#FFFFFF" d="M44.221,57.577c0,4.694,0.105,7.356,0.471,10.123H41.77c-0.209-1.201-0.314-2.558-0.314-3.914h-0.104
				c-1.773,3.078-4.381,4.539-8.451,4.539c-4.121,0-8.502-2.035-8.502-7.146c0-7.354,8.607-8.086,13.354-8.086h3.652v-1.461
				c0-4.174-2.922-5.844-6.781-5.844c-2.818,0-5.217,0.887-7.355,2.714l-1.826-2.14c2.295-2.191,6.051-3.391,9.182-3.391
				c5.844,0,9.598,2.608,9.598,8.71v5.896H44.221z M37.961,55.597c-5.217,0-10.434,1.305-10.434,5.426
				c0,2.974,2.869,4.486,5.479,4.486c6.678,0,8.398-4.277,8.398-8.295v-1.617H37.961L37.961,55.597z"/>
			<path fill="#FFFFFF" d="M79.902,66.134c0,11.998-7.93,14.086-12.834,14.086c-4.85,0-9.494-1.877-11.945-5.061l2.451-2.295
				c2.191,3.077,5.74,4.538,9.494,4.538c9.547,0,9.703-8.346,9.703-11.061v-3.338h-0.104c-1.824,2.869-5.008,4.695-9.129,4.695
				c-7.096,0-12.887-5.582-12.887-12.363c0-6.783,5.791-12.364,12.887-12.364c4.121,0,7.305,1.825,9.129,4.694h0.104v-4.068h3.131
				V66.134z M67.332,45.788c-5.271,0-9.549,4.278-9.549,9.549c0,5.268,4.277,9.545,9.549,9.545c5.268,0,9.543-4.277,9.543-9.545
				C76.875,50.067,72.6,45.788,67.332,45.788z"/>
			<path fill="#FFFFFF" d="M112.14,60.919c0,1.772,0.262,5.526,0.262,6.781h-3.131c-0.051-1.773-0.104-3.757-0.207-4.228h-0.157
				c-1.253,2.66-4.33,4.853-8.246,4.853c-7.51,0-9.18-5.113-9.18-10.382V43.599h3.131v14.189c0,3.914,1.096,7.721,6.049,7.721
				c4.646,0,8.351-3.236,8.351-9.861V43.599h3.129L112.14,60.919L112.14,60.919z"/>
			<path fill="#FFFFFF" d="M124.97,61.544c1.307,2.557,4.176,3.965,6.991,3.965c2.711,0,5.529-1.67,5.529-4.434
				c0-6.627-14.295-1.982-14.295-11.166c0-4.693,4.277-6.938,8.242-6.938c3.914,0,6.941,1.46,8.504,4.537l-2.816,1.669
				c-1.201-2.189-2.867-3.391-5.688-3.391c-2.242,0-5.111,1.356-5.111,3.86c0,6.521,14.293,1.463,14.293,11.218
				c0,4.954-4.121,7.459-8.711,7.459c-4.121,0-7.826-1.564-9.703-4.902L124.97,61.544z"/>
			<path fill="#FFFFFF" d="M171.084,57.577c0,4.694,0.104,7.356,0.47,10.123h-2.921c-0.209-1.201-0.315-2.558-0.315-3.914h-0.103
				c-1.774,3.078-4.383,4.539-8.45,4.539c-4.121,0-8.502-2.035-8.502-7.146c0-7.354,8.604-8.086,13.354-8.086h3.651v-1.461
				c0-4.174-2.922-5.844-6.783-5.844c-2.815,0-5.215,0.887-7.354,2.714l-1.826-2.14c2.297-2.191,6.053-3.391,9.182-3.391
				c5.844,0,9.6,2.608,9.6,8.71v5.896H171.084z M164.823,55.597c-5.215,0-10.432,1.305-10.432,5.426
				c0,2.974,2.869,4.486,5.477,4.486c6.678,0,8.4-4.277,8.4-8.295v-1.617H164.823L164.823,55.597z"/>
		</g>
	</g>
</g>
<g id="Layer_2">
	<g>
		<g>
			<circle fill="#838386" stroke="#838386" stroke-width="0.2859" cx="188.302" cy="34.46" r="12.866"/>
			<circle fill="#45505F" stroke="#FFFFFF" stroke-width="1.5967" cx="179.321" cy="34.956" r="5.85"/>
			<circle fill="#45505F" stroke="#FFFFFF" stroke-width="1.5967" cx="196.849" cy="34.772" r="5.851"/>
			<circle fill="#45505F" stroke="#FFFFFF" stroke-width="1.5967" cx="188.194" cy="25.71" r="5.85"/>
			<circle fill="#45505F" stroke="#FFFFFF" stroke-width="1.5967" cx="188.194" cy="44.177" r="5.85"/>
		</g>
		<g>
			<path fill="#45505F" d="M2.834,50.837c0-1.774-0.261-5.53-0.261-6.782h3.13c0.053,1.773,0.104,3.756,0.209,4.227
				c1.564-2.819,4.068-4.853,7.668-4.853c0.627,0,1.201,0.104,1.826,0.261l-0.365,3.078c-0.469-0.158-0.887-0.209-1.199-0.209
				c-5.426,0-7.878,3.756-7.878,8.451v13.146h-3.13V50.837z"/>
			<path fill="#45505F" d="M44.148,58.033c0,4.695,0.105,7.357,0.471,10.123h-2.922c-0.209-1.201-0.314-2.557-0.314-3.914h-0.104
				c-1.773,3.078-4.382,4.539-8.451,4.539c-4.121,0-8.503-2.035-8.503-7.146c0-7.355,8.608-8.086,13.354-8.086h3.651v-1.461
				c0-4.173-2.921-5.843-6.78-5.843c-2.818,0-5.218,0.887-7.355,2.714l-1.826-2.139c2.295-2.192,6.051-3.391,9.182-3.391
				c5.843,0,9.598,2.608,9.598,8.709V58.033z M37.889,56.053c-5.217,0-10.434,1.305-10.434,5.426c0,2.973,2.869,4.486,5.479,4.486
				c6.678,0,8.397-4.277,8.397-8.295v-1.617H37.889z"/>
			<path fill="#45505F" d="M79.83,66.59c0,11.998-7.931,14.086-12.834,14.086c-4.851,0-9.494-1.877-11.946-5.061l2.452-2.295
				c2.191,3.078,5.74,4.539,9.494,4.539c9.547,0,9.703-8.346,9.703-11.061v-3.338h-0.104c-1.825,2.869-5.008,4.695-9.129,4.695
				c-7.096,0-12.887-5.582-12.887-12.363c0-6.783,5.791-12.364,12.887-12.364c4.121,0,7.304,1.825,9.129,4.694h0.104v-4.068h3.131
				V66.59z M67.259,46.245c-5.271,0-9.548,4.28-9.548,9.548c0,5.268,4.277,9.545,9.548,9.545c5.268,0,9.544-4.277,9.544-9.545
				C76.803,50.525,72.526,46.245,67.259,46.245z"/>
			<path fill="#45505F" d="M112.067,61.375c0,1.773,0.262,5.527,0.262,6.781h-3.131c-0.051-1.773-0.104-3.756-0.207-4.227h-0.158
				c-1.252,2.66-4.33,4.852-8.245,4.852c-7.511,0-9.18-5.113-9.18-10.381V44.055h3.13v14.189c0,3.914,1.097,7.721,6.05,7.721
				c4.645,0,8.35-3.236,8.35-9.861V44.055h3.129V61.375z"/>
			<path fill="#45505F" d="M124.897,62c1.307,2.557,4.176,3.965,6.992,3.965c2.711,0,5.529-1.67,5.529-4.434
				c0-6.627-14.295-1.982-14.295-11.165c0-4.694,4.277-6.937,8.242-6.937c3.914,0,6.941,1.46,8.504,4.537l-2.816,1.669
				c-1.201-2.19-2.867-3.391-5.688-3.391c-2.242,0-5.111,1.357-5.111,3.862c0,6.521,14.293,1.462,14.293,11.216
				c0,4.955-4.121,7.459-8.711,7.459c-4.121,0-7.826-1.564-9.703-4.902L124.897,62z"/>
			<path fill="#45505F" d="M171.012,58.033c0,4.695,0.104,7.357,0.469,10.123h-2.92c-0.209-1.201-0.316-2.557-0.316-3.914h-0.102
				c-1.775,3.078-4.383,4.539-8.451,4.539c-4.121,0-8.502-2.035-8.502-7.146c0-7.355,8.605-8.086,13.354-8.086h3.652v-1.461
				c0-4.173-2.922-5.843-6.783-5.843c-2.816,0-5.215,0.887-7.355,2.714l-1.826-2.139c2.297-2.192,6.053-3.391,9.182-3.391
				c5.844,0,9.6,2.608,9.6,8.709V58.033z M164.75,56.053c-5.215,0-10.432,1.305-10.432,5.426c0,2.973,2.869,4.486,5.477,4.486
				c6.678,0,8.4-4.277,8.4-8.295v-1.617H164.75z"/>
		</g>
	</g>
</g>
</svg>
